<?xml version="1.0" encoding="UTF-8"?>
<svg xmlns="http://www.w3.org/2000/svg" xmlns:xlink="http://www.w3.org/1999/xlink" width="400px" height="400px" viewBox="0 0 400 400" version="1.1">
<g id="surface1">
<path style="fill-rule:evenodd;fill:rgb(0%,0%,0%);fill-opacity:1;stroke-width:1.5;stroke-linecap:butt;stroke-linejoin:round;stroke:rgb(0%,0%,0%);stroke-opacity:1;stroke-miterlimit:4;" d="M 9 38.999854 L 36 38.999854 L 36 36.000146 L 9 36.000146 Z M 9 38.999854 " transform="matrix(8.888889,0,0,8.888889,0,2.666667)"/>
<path style="fill-rule:evenodd;fill:rgb(0%,0%,0%);fill-opacity:1;stroke-width:1.5;stroke-linecap:butt;stroke-linejoin:round;stroke:rgb(0%,0%,0%);stroke-opacity:1;stroke-miterlimit:4;" d="M 12.499805 31.999805 L 14.000098 29.500195 L 30.999902 29.500195 L 32.500195 31.999805 Z M 12.499805 31.999805 " transform="matrix(8.888889,0,0,8.888889,0,2.666667)"/>
<path style="fill-rule:evenodd;fill:rgb(0%,0%,0%);fill-opacity:1;stroke-width:1.5;stroke-linecap:butt;stroke-linejoin:round;stroke:rgb(0%,0%,0%);stroke-opacity:1;stroke-miterlimit:4;" d="M 12.000146 36.000146 L 12.000146 31.999805 L 32.999854 31.999805 L 32.999854 36.000146 Z M 12.000146 36.000146 " transform="matrix(8.888889,0,0,8.888889,0,2.666667)"/>
<path style="fill-rule:evenodd;fill:rgb(0%,0%,0%);fill-opacity:1;stroke-width:1.5;stroke-linecap:butt;stroke-linejoin:miter;stroke:rgb(0%,0%,0%);stroke-opacity:1;stroke-miterlimit:4;" d="M 14.000098 29.500195 L 14.000098 16.499854 L 30.999902 16.499854 L 30.999902 29.500195 Z M 14.000098 29.500195 " transform="matrix(8.888889,0,0,8.888889,0,2.666667)"/>
<path style="fill-rule:evenodd;fill:rgb(0%,0%,0%);fill-opacity:1;stroke-width:1.5;stroke-linecap:butt;stroke-linejoin:round;stroke:rgb(0%,0%,0%);stroke-opacity:1;stroke-miterlimit:4;" d="M 14.000098 16.499854 L 10.999951 13.999805 L 34.000049 13.999805 L 30.999902 16.499854 Z M 14.000098 16.499854 " transform="matrix(8.888889,0,0,8.888889,0,2.666667)"/>
<path style="fill-rule:evenodd;fill:rgb(0%,0%,0%);fill-opacity:1;stroke-width:1.5;stroke-linecap:butt;stroke-linejoin:round;stroke:rgb(0%,0%,0%);stroke-opacity:1;stroke-miterlimit:4;" d="M 10.999951 13.999805 L 10.999951 9.000146 L 14.999854 9.000146 L 14.999854 11.000098 L 19.999951 11.000098 L 19.999951 9.000146 L 25.000049 9.000146 L 25.000049 11.000098 L 30.000146 11.000098 L 30.000146 9.000146 L 34.000049 9.000146 L 34.000049 13.999805 Z M 10.999951 13.999805 " transform="matrix(8.888889,0,0,8.888889,0,2.666667)"/>
<path style="fill:none;stroke-width:1;stroke-linecap:round;stroke-linejoin:miter;stroke:rgb(100%,100%,100%);stroke-opacity:1;stroke-miterlimit:4;" d="M 12.000146 35.500049 L 32.999854 35.500049 " transform="matrix(8.888889,0,0,8.888889,0,2.666667)"/>
<path style="fill:none;stroke-width:1;stroke-linecap:round;stroke-linejoin:miter;stroke:rgb(100%,100%,100%);stroke-opacity:1;stroke-miterlimit:4;" d="M 12.999902 31.500146 L 32.000098 31.500146 " transform="matrix(8.888889,0,0,8.888889,0,2.666667)"/>
<path style="fill:none;stroke-width:1;stroke-linecap:round;stroke-linejoin:miter;stroke:rgb(100%,100%,100%);stroke-opacity:1;stroke-miterlimit:4;" d="M 14.000098 29.500195 L 30.999902 29.500195 " transform="matrix(8.888889,0,0,8.888889,0,2.666667)"/>
<path style="fill:none;stroke-width:1;stroke-linecap:round;stroke-linejoin:miter;stroke:rgb(100%,100%,100%);stroke-opacity:1;stroke-miterlimit:4;" d="M 14.000098 16.499854 L 30.999902 16.499854 " transform="matrix(8.888889,0,0,8.888889,0,2.666667)"/>
<path style="fill:none;stroke-width:1;stroke-linecap:round;stroke-linejoin:miter;stroke:rgb(100%,100%,100%);stroke-opacity:1;stroke-miterlimit:4;" d="M 10.999951 13.999805 L 34.000049 13.999805 " transform="matrix(8.888889,0,0,8.888889,0,2.666667)"/>
</g>
</svg>
