<?xml version="1.0" encoding="UTF-8"?>
<svg xmlns="http://www.w3.org/2000/svg" xmlns:xlink="http://www.w3.org/1999/xlink" width="400px" height="400px" viewBox="0 0 400 400" version="1.1">
<g id="surface1">
<path style="fill-rule:evenodd;fill:rgb(100%,100%,100%);fill-opacity:1;stroke-width:1.5;stroke-linecap:butt;stroke-linejoin:round;stroke:rgb(0%,0%,0%);stroke-opacity:1;stroke-miterlimit:4;" d="M 9 35.999854 C 12.389941 35.02998 19.110059 36.430078 22.5 33.999902 C 25.889941 36.430078 32.610059 35.02998 36 35.999854 C 36 35.999854 37.650146 36.539941 39.000146 37.999805 C 38.319873 38.970117 37.35 38.989893 36 38.499902 C 32.610059 37.530029 25.889941 38.96001 22.5 37.500146 C 19.110059 38.96001 12.389941 37.530029 9 38.499902 C 7.65 38.989893 6.680127 38.970117 5.999854 37.999805 C 7.349854 36.539941 9 35.999854 9 35.999854 Z M 9 35.999854 " transform="matrix(8.888889,0,0,8.888889,0,5.333333)"/>
<path style="fill-rule:evenodd;fill:rgb(100%,100%,100%);fill-opacity:1;stroke-width:1.5;stroke-linecap:butt;stroke-linejoin:round;stroke:rgb(0%,0%,0%);stroke-opacity:1;stroke-miterlimit:4;" d="M 14.999854 31.999951 C 17.499902 34.5 27.500098 34.5 30.000146 31.999951 C 30.499805 30.500098 30.000146 30 30.000146 30 C 30.000146 27.499951 27.500098 26.000098 27.500098 26.000098 C 32.999854 24.499805 33.499951 14.500049 22.5 10.500146 C 11.500049 14.500049 12.000146 24.499805 17.499902 26.000098 C 17.499902 26.000098 14.999854 27.499951 14.999854 30 C 14.999854 30 14.500195 30.500098 14.999854 31.999951 Z M 14.999854 31.999951 " transform="matrix(8.888889,0,0,8.888889,0,5.333333)"/>
<path style="fill-rule:evenodd;fill:rgb(100%,100%,100%);fill-opacity:1;stroke-width:1.5;stroke-linecap:butt;stroke-linejoin:round;stroke:rgb(0%,0%,0%);stroke-opacity:1;stroke-miterlimit:4;" d="M 25.000049 8.000098 C 25.000049 9.380859 23.880762 10.500146 22.5 10.500146 C 21.119238 10.500146 19.999951 9.380859 19.999951 8.000098 C 19.999951 6.619336 21.119238 5.500049 22.5 5.500049 C 23.880762 5.500049 25.000049 6.619336 25.000049 8.000098 Z M 25.000049 8.000098 " transform="matrix(8.888889,0,0,8.888889,0,5.333333)"/>
<path style="fill:none;stroke-width:1.5;stroke-linecap:round;stroke-linejoin:miter;stroke:rgb(0%,0%,0%);stroke-opacity:1;stroke-miterlimit:4;" d="M 17.499902 26.000098 L 27.500098 26.000098 M 14.999854 30 L 30.000146 30 M 22.5 15.499805 L 22.5 20.499902 M 19.999951 17.999854 L 25.000049 17.999854 " transform="matrix(8.888889,0,0,8.888889,0,5.333333)"/>
</g>
</svg>
