<?xml version="1.0" encoding="UTF-8"?>
<svg xmlns="http://www.w3.org/2000/svg" xmlns:xlink="http://www.w3.org/1999/xlink" width="400px" height="400px" viewBox="0 0 400 400" version="1.1">
<g id="surface1">
<path style="fill:none;stroke-width:1.5;stroke-linecap:round;stroke-linejoin:miter;stroke:rgb(0%,0%,0%);stroke-opacity:1;stroke-miterlimit:4;" d="M 22.5 11.630127 L 22.5 5.999854 M 19.999951 7.999805 L 25.000049 7.999805 " transform="matrix(8.888889,0,0,8.888889,0,0)"/>
<path style="fill-rule:evenodd;fill:rgb(100%,100%,100%);fill-opacity:1;stroke-width:1.5;stroke-linecap:butt;stroke-linejoin:miter;stroke:rgb(0%,0%,0%);stroke-opacity:1;stroke-miterlimit:4;" d="M 22.5 25.000049 C 22.5 25.000049 27 17.499902 25.500146 14.500195 C 25.500146 14.500195 24.499951 12.000146 22.5 12.000146 C 20.500049 12.000146 19.499854 14.500195 19.499854 14.500195 C 18 17.499902 22.5 25.000049 22.5 25.000049 " transform="matrix(8.888889,0,0,8.888889,0,0)"/>
<path style="fill-rule:evenodd;fill:rgb(100%,100%,100%);fill-opacity:1;stroke-width:1.5;stroke-linecap:round;stroke-linejoin:round;stroke:rgb(0%,0%,0%);stroke-opacity:1;stroke-miterlimit:4;" d="M 12.499805 37.000195 C 18 40.5 27 40.5 32.500195 37.000195 L 32.500195 30.000146 C 32.500195 30.000146 41.500195 25.500146 38.500049 19.499854 C 34.500146 12.999902 25.000049 16.000049 22.5 23.500195 L 22.5 27 L 22.5 23.500195 C 19.999951 16.000049 10.499854 12.999902 6.499951 19.499854 C 3.499805 25.500146 12.499805 30.000146 12.499805 30.000146 L 12.499805 37.000195 " transform="matrix(8.888889,0,0,8.888889,0,0)"/>
<path style="fill:none;stroke-width:1.5;stroke-linecap:round;stroke-linejoin:round;stroke:rgb(0%,0%,0%);stroke-opacity:1;stroke-miterlimit:4;" d="M 12.499805 30.000146 C 18 27 27 27 32.500195 30.000146 M 12.499805 33.499951 C 18 30.499805 27 30.499805 32.500195 33.499951 M 12.499805 37.000195 C 18 34.000049 27 34.000049 32.500195 37.000195 " transform="matrix(8.888889,0,0,8.888889,0,0)"/>
</g>
</svg>
