<?xml version="1.0" encoding="UTF-8"?>
<svg xmlns="http://www.w3.org/2000/svg" xmlns:xlink="http://www.w3.org/1999/xlink" width="400px" height="400px" viewBox="0 0 400 400" version="1.1">
<g id="surface1">
<path style="fill-rule:nonzero;fill:rgb(100%,100%,100%);fill-opacity:1;stroke-width:1.5;stroke-linecap:butt;stroke-linejoin:round;stroke:rgb(0%,0%,0%);stroke-opacity:1;stroke-miterlimit:4;" d="M 9 25.999805 C 17.499902 24.499951 30.000146 24.499951 36 25.999805 L 38.500049 13.5 L 30.999902 25.000049 L 30.700195 10.900195 L 25.500146 24.499951 L 22.5 10.000195 L 19.499854 24.499951 L 14.299805 10.900195 L 14.000098 25.000049 L 6.499951 13.5 Z M 9 25.999805 " transform="matrix(8.888889,0,0,8.888889,0,0)"/>
<path style="fill-rule:nonzero;fill:rgb(100%,100%,100%);fill-opacity:1;stroke-width:1.5;stroke-linecap:butt;stroke-linejoin:round;stroke:rgb(0%,0%,0%);stroke-opacity:1;stroke-miterlimit:4;" d="M 9 25.999805 C 9 28.000195 10.499854 28.000195 11.500049 30.000146 C 12.499805 31.5 12.499805 30.999902 12.000146 33.499951 C 10.499854 34.500146 10.999951 36 10.999951 36 C 9.500098 37.499854 10.999951 38.500049 10.999951 38.500049 C 17.499902 39.499805 27.500098 39.499805 34.000049 38.500049 C 34.000049 38.500049 35.499902 37.499854 34.000049 36 C 34.000049 36 34.500146 34.500146 32.999854 33.499951 C 32.500195 30.999902 32.500195 31.5 33.499951 30.000146 C 34.500146 28.000195 36 28.000195 36 25.999805 C 27.500098 24.499951 17.499902 24.499951 9 25.999805 Z M 9 25.999805 " transform="matrix(8.888889,0,0,8.888889,0,0)"/>
<path style="fill:none;stroke-width:1.5;stroke-linecap:butt;stroke-linejoin:round;stroke:rgb(0%,0%,0%);stroke-opacity:1;stroke-miterlimit:4;" d="M 11.500049 30.000146 C 14.999854 28.999951 30.000146 28.999951 33.499951 30.000146 " transform="matrix(8.888889,0,0,8.888889,0,0)"/>
<path style="fill:none;stroke-width:1.5;stroke-linecap:butt;stroke-linejoin:round;stroke:rgb(0%,0%,0%);stroke-opacity:1;stroke-miterlimit:4;" d="M 12.000146 33.499951 C 18 32.500195 27 32.500195 32.999854 33.499951 " transform="matrix(8.888889,0,0,8.888889,0,0)"/>
<path style="fill-rule:nonzero;fill:rgb(100%,100%,100%);fill-opacity:1;stroke-width:1.5;stroke-linecap:butt;stroke-linejoin:round;stroke:rgb(0%,0%,0%);stroke-opacity:1;stroke-miterlimit:4;" d="M 7.999805 12.000146 C 7.999805 13.104492 7.104639 14.000098 5.999854 14.000098 C 4.895508 14.000098 3.999902 13.104492 3.999902 12.000146 C 3.999902 10.895361 4.895508 10.000195 5.999854 10.000195 C 7.104639 10.000195 7.999805 10.895361 7.999805 12.000146 Z M 7.999805 12.000146 " transform="matrix(8.888889,0,0,8.888889,0,0)"/>
<path style="fill-rule:nonzero;fill:rgb(100%,100%,100%);fill-opacity:1;stroke-width:1.5;stroke-linecap:butt;stroke-linejoin:round;stroke:rgb(0%,0%,0%);stroke-opacity:1;stroke-miterlimit:4;" d="M 16.000049 9 C 16.000049 10.104785 15.104443 10.999951 14.000098 10.999951 C 12.895312 10.999951 12.000146 10.104785 12.000146 9 C 12.000146 7.895215 12.895312 7.000049 14.000098 7.000049 C 15.104443 7.000049 16.000049 7.895215 16.000049 9 Z M 16.000049 9 " transform="matrix(8.888889,0,0,8.888889,0,0)"/>
<path style="fill-rule:nonzero;fill:rgb(100%,100%,100%);fill-opacity:1;stroke-width:1.5;stroke-linecap:butt;stroke-linejoin:round;stroke:rgb(0%,0%,0%);stroke-opacity:1;stroke-miterlimit:4;" d="M 24.499951 7.999805 C 24.499951 9.10459 23.604785 10.000195 22.5 10.000195 C 21.395215 10.000195 20.500049 9.10459 20.500049 7.999805 C 20.500049 6.895459 21.395215 5.999854 22.5 5.999854 C 23.604785 5.999854 24.499951 6.895459 24.499951 7.999805 Z M 24.499951 7.999805 " transform="matrix(8.888889,0,0,8.888889,0,0)"/>
<path style="fill-rule:nonzero;fill:rgb(100%,100%,100%);fill-opacity:1;stroke-width:1.5;stroke-linecap:butt;stroke-linejoin:round;stroke:rgb(0%,0%,0%);stroke-opacity:1;stroke-miterlimit:4;" d="M 32.999854 9 C 32.999854 10.104785 32.104687 10.999951 30.999902 10.999951 C 29.895557 10.999951 28.999951 10.104785 28.999951 9 C 28.999951 7.895215 29.895557 7.000049 30.999902 7.000049 C 32.104687 7.000049 32.999854 7.895215 32.999854 9 Z M 32.999854 9 " transform="matrix(8.888889,0,0,8.888889,0,0)"/>
<path style="fill-rule:nonzero;fill:rgb(100%,100%,100%);fill-opacity:1;stroke-width:1.5;stroke-linecap:butt;stroke-linejoin:round;stroke:rgb(0%,0%,0%);stroke-opacity:1;stroke-miterlimit:4;" d="M 41.000098 12.000146 C 41.000098 13.104492 40.104492 14.000098 39.000146 14.000098 C 37.895361 14.000098 37.000195 13.104492 37.000195 12.000146 C 37.000195 10.895361 37.895361 10.000195 39.000146 10.000195 C 40.104492 10.000195 41.000098 10.895361 41.000098 12.000146 Z M 41.000098 12.000146 " transform="matrix(8.888889,0,0,8.888889,0,0)"/>
</g>
</svg>
