<?xml version="1.0" encoding="UTF-8"?>
<svg xmlns="http://www.w3.org/2000/svg" xmlns:xlink="http://www.w3.org/1999/xlink" width="400px" height="400px" viewBox="0 0 400 400" version="1.1">
<g id="surface1">
<path style="fill-rule:evenodd;fill:rgb(100%,100%,100%);fill-opacity:1;stroke-width:1.5;stroke-linecap:round;stroke-linejoin:round;stroke:rgb(0%,0%,0%);stroke-opacity:1;stroke-miterlimit:4;" d="M 21.999902 9.999902 C 32.500195 11.000098 38.500049 18.000146 37.999951 38.999854 L 14.999854 38.999854 C 14.999854 29.999854 25.000049 32.499902 23.000098 18.000146 " transform="matrix(8.888889,0,0,8.888889,0,2.666667)"/>
<path style="fill-rule:evenodd;fill:rgb(100%,100%,100%);fill-opacity:1;stroke-width:1.5;stroke-linecap:round;stroke-linejoin:round;stroke:rgb(0%,0%,0%);stroke-opacity:1;stroke-miterlimit:4;" d="M 23.999854 18.000146 C 24.37998 20.910205 18.45 25.370215 16.000049 27.000146 C 12.999902 29.000098 13.180078 31.340186 10.999951 31.000049 C 9.958008 30.060059 12.410156 27.959912 10.999951 27.999902 C 10.000195 27.999902 11.189795 29.229932 10.000195 29.999854 C 9 29.999854 5.997217 31.000049 5.999854 25.999951 C 5.999854 24 12.000146 13.999805 12.000146 13.999805 C 12.000146 13.999805 13.889795 12.100049 14.000098 10.5 C 13.270166 9.505957 13.5 8.500049 13.5 7.499854 C 14.500195 6.500098 16.500146 9.999902 16.500146 9.999902 L 18.500098 9.999902 C 18.500098 9.999902 19.280127 8.007861 21.000146 7.000195 C 21.999902 7.000195 21.999902 9.999902 21.999902 9.999902 " transform="matrix(8.888889,0,0,8.888889,0,2.666667)"/>
<path style="fill-rule:evenodd;fill:rgb(0%,0%,0%);fill-opacity:1;stroke-width:1.5;stroke-linecap:round;stroke-linejoin:round;stroke:rgb(0%,0%,0%);stroke-opacity:1;stroke-miterlimit:4;" d="M 9.500098 25.499854 C 9.500098 25.77627 9.275977 25.999951 9 25.999951 C 8.724023 25.999951 8.499902 25.77627 8.499902 25.499854 C 8.499902 25.223877 8.724023 25.000195 9 25.000195 C 9.275977 25.000195 9.500098 25.223877 9.500098 25.499854 Z M 9.500098 25.499854 " transform="matrix(8.888889,0,0,8.888889,0,2.666667)"/>
<path style="fill-rule:evenodd;fill:rgb(0%,0%,0%);fill-opacity:1;stroke-width:1.5;stroke-linecap:round;stroke-linejoin:round;stroke:rgb(0%,0%,0%);stroke-opacity:1;stroke-miterlimit:4;" d="M 15.000122 15.500099 C 14.999842 16.328422 14.776137 17.000047 14.500103 17.00008 C 14.224068 17.000114 14.000033 16.328198 13.999933 15.500095 C 13.999994 14.671391 14.223918 14.000147 14.499953 14.000113 C 14.775987 14.00008 14.999802 14.671615 15.000122 15.500099 Z M 15.000122 15.500099 " transform="matrix(7.697778,4.444444,-4.444444,7.697778,86.16,-43.315556)"/>
</g>
</svg>
