<?xml version="1.0" encoding="UTF-8"?>
<svg xmlns="http://www.w3.org/2000/svg" xmlns:xlink="http://www.w3.org/1999/xlink" width="400px" height="400px" viewBox="0 0 400 400" version="1.1">
<g id="surface1">
<path style="fill-rule:nonzero;fill:rgb(100%,100%,100%);fill-opacity:1;stroke-width:1.5;stroke-linecap:round;stroke-linejoin:miter;stroke:rgb(0%,0%,0%);stroke-opacity:1;stroke-miterlimit:4;" d="M 22.5 9 C 20.28999 9 18.500098 10.789893 18.500098 12.999902 C 18.500098 13.889795 18.790137 14.709814 19.280127 15.37998 C 17.329834 16.500146 16.000049 18.590186 16.000049 21.000146 C 16.000049 23.02998 16.940039 24.840088 18.41001 26.030127 C 15.409863 27.090088 10.999951 31.57998 10.999951 39.499805 L 34.000049 39.499805 C 34.000049 31.57998 29.590137 27.090088 26.58999 26.030127 C 28.059961 24.840088 28.999951 23.02998 28.999951 21.000146 C 28.999951 18.590186 27.670166 16.500146 25.719873 15.37998 C 26.209863 14.709814 26.499902 13.889795 26.499902 12.999902 C 26.499902 10.789893 24.71001 9 22.5 9 Z M 22.5 9 " transform="matrix(8.888889,0,0,8.888889,0,0)"/>
</g>
</svg>
